<svg
    width="588"
    height="437"
    viewBox="0 0 588 437"
    fill="none"
    xmlns="http://www.w3.org/2000/svg"
    
  >
    <g clip-path="url(#clip0_40002616_5810)">
      <path
        d="M0 32C0 14.3269 14.3269 0 32 0H556C573.673 0 588 14.3269 588 32V405C588 422.673 573.673 437 556 437H32C14.3269 437 0 422.673 0 405V32Z"
        fill="#F3F1FD"
      />
      <circle opacity="0.1" cx="290.644" cy="222.085" r="303.636" stroke="#7354EF" />
      <circle opacity="0.1" cx="290.656" cy="222.082" r="258.719" stroke="#7354EF" />
      <circle opacity="0.1" cx="290.645" cy="222.086" r="207.52" stroke="#7354EF" />
      <circle opacity="0.1" cx="290.647" cy="222.088" r="157.647" stroke="#7354EF" />
      <path
        d="M303.004 117H367.641C384.209 117 397.641 130.431 397.641 147V304C397.641 320.569 411.072 334 427.641 334H519.004"
        stroke="#C1C1C8"
        stroke-width="2"
        stroke-dasharray="5 5"
      />
      <line
        x1="292"
        y1="117"
        x2="292.004"
        y2="352.5"
        stroke="#C1C1C8"
        stroke-width="2"
        stroke-dasharray="5 5"
      />
      <path
        d="M279 117H214.363C197.795 117 184.363 130.431 184.363 147V304C184.363 320.569 170.932 334 154.363 334H63"
        stroke="#C1C1C8"
        stroke-width="2"
        stroke-dasharray="5 5"
      />
      <g filter="url(#filter0_d_40002616_5810)">
        <circle cx="90.5" cy="328.5" r="37.5" fill="white" />
      </g>
      <g clip-path="url(#clip1_40002616_5810)">
        <path
          d="M100.377 309.91H80.6271C75.815 309.91 71.9141 313.811 71.9141 318.623V338.373C71.9141 343.185 75.815 347.086 80.6271 347.086H100.377C105.189 347.086 109.09 343.185 109.09 338.373V318.623C109.09 313.811 105.189 309.91 100.377 309.91Z"
          fill="url(#paint0_radial_40002616_5810)"
        />
        <path
          d="M100.377 309.91H80.6271C75.815 309.91 71.9141 313.811 71.9141 318.623V338.373C71.9141 343.185 75.815 347.086 80.6271 347.086H100.377C105.189 347.086 109.09 343.185 109.09 338.373V318.623C109.09 313.811 105.189 309.91 100.377 309.91Z"
          fill="url(#paint1_radial_40002616_5810)"
        />
        <path
          d="M90.4996 313.977C86.5558 313.977 86.0607 313.994 84.5118 314.064C82.9659 314.135 81.9106 314.38 80.9873 314.739C80.032 315.11 79.2219 315.606 78.4148 316.413C77.6069 317.221 77.1107 318.031 76.7387 318.986C76.3785 319.909 76.1335 320.965 76.064 322.51C75.9947 324.059 75.9766 324.554 75.9766 328.498C75.9766 332.442 75.994 332.936 76.0643 334.485C76.1354 336.031 76.3801 337.086 76.739 338.009C77.1101 338.964 77.6063 339.775 78.4137 340.582C79.2207 341.39 80.0309 341.887 80.9854 342.258C81.9094 342.617 82.9648 342.862 84.5105 342.933C86.0596 343.003 86.5542 343.02 90.4978 343.02C94.4421 343.02 94.9355 343.003 96.4844 342.933C98.0304 342.862 99.0868 342.617 100.011 342.258C100.966 341.887 101.775 341.39 102.581 340.582C103.389 339.775 103.885 338.964 104.258 338.01C104.615 337.086 104.86 336.03 104.932 334.485C105.002 332.936 105.02 332.442 105.02 328.498C105.02 324.554 105.002 324.06 104.932 322.511C104.86 320.965 104.615 319.909 104.258 318.986C103.885 318.031 103.389 317.221 102.581 316.413C101.774 315.606 100.966 315.11 100.01 314.739C99.0842 314.38 98.0283 314.135 96.4824 314.064C94.9333 313.994 94.4402 313.977 90.4951 313.977H90.4996ZM89.1968 316.594C89.5835 316.593 90.015 316.594 90.4996 316.594C94.377 316.594 94.8365 316.607 96.3676 316.677C97.7835 316.742 98.552 316.978 99.0639 317.177C99.7416 317.44 100.225 317.755 100.733 318.263C101.241 318.772 101.556 319.256 101.819 319.933C102.018 320.445 102.255 321.213 102.32 322.629C102.389 324.16 102.404 324.62 102.404 328.495C102.404 332.371 102.389 332.831 102.32 334.361C102.255 335.777 102.018 336.546 101.819 337.057C101.556 337.735 101.241 338.217 100.733 338.725C100.224 339.233 99.7419 339.548 99.0639 339.811C98.5526 340.011 97.7835 340.247 96.3676 340.312C94.8368 340.381 94.377 340.396 90.4996 340.396C86.622 340.396 86.1624 340.381 84.6316 340.312C83.2158 340.246 82.4473 340.01 81.935 339.811C81.2574 339.548 80.7732 339.233 80.265 338.725C79.7567 338.217 79.4422 337.734 79.1783 337.056C78.9795 336.544 78.7427 335.776 78.6782 334.36C78.6086 332.829 78.5947 332.369 78.5947 328.491C78.5947 324.614 78.6086 324.156 78.6782 322.625C78.7429 321.209 78.9795 320.441 79.1783 319.929C79.4416 319.251 79.7567 318.767 80.2651 318.259C80.7734 317.751 81.2574 317.436 81.9351 317.172C82.447 316.973 83.2158 316.737 84.6316 316.672C85.9713 316.611 86.4904 316.593 89.1968 316.59V316.594ZM98.2513 319.005C97.2892 319.005 96.5087 319.785 96.5087 320.747C96.5087 321.709 97.2892 322.489 98.2513 322.489C99.2133 322.489 99.9939 321.709 99.9939 320.747C99.9939 319.785 99.2133 319.004 98.2513 319.004V319.005ZM90.4996 321.041C86.3812 321.041 83.0421 324.38 83.0421 328.498C83.0421 332.617 86.3812 335.954 90.4996 335.954C94.6181 335.954 97.956 332.617 97.956 328.498C97.956 324.38 94.6178 321.041 90.4993 321.041H90.4996ZM90.4996 323.658C93.1729 323.658 95.3402 325.825 95.3402 328.498C95.3402 331.172 93.1729 333.339 90.4996 333.339C87.8261 333.339 85.6591 331.172 85.6591 328.498C85.6591 325.825 87.8261 323.658 90.4996 323.658Z"
          fill="white"
        />
      </g>
      <g filter="url(#filter1_d_40002616_5810)">
        <circle cx="294.5" cy="328.5" r="37.5" fill="white" />
      </g>
      <path
        d="M272.009 328.296C272.008 332.245 273.048 336.101 275.026 339.5L271.82 351.112L283.797 347.996C287.11 349.786 290.821 350.723 294.593 350.723H294.603C307.054 350.723 317.19 340.67 317.195 328.313C317.197 322.326 314.849 316.695 310.584 312.459C306.318 308.223 300.646 305.889 294.602 305.887C282.15 305.887 272.015 315.939 272.01 328.296"
        fill="url(#paint2_linear_40002616_5810)"
      />
      <path
        d="M271.189 328.287C271.187 332.378 272.265 336.372 274.312 339.893L270.992 351.921L283.398 348.694C286.817 350.543 290.666 351.518 294.582 351.52H294.592C307.49 351.52 317.989 341.105 317.995 328.306C317.997 322.103 315.565 316.27 311.146 311.882C306.728 307.495 300.852 305.077 294.592 305.074C281.692 305.074 271.194 315.488 271.189 328.287ZM278.577 339.286L278.114 338.557C276.167 335.484 275.139 331.934 275.14 328.288C275.144 317.65 283.87 308.995 294.599 308.995C299.795 308.997 304.678 311.007 308.351 314.653C312.024 318.3 314.045 323.148 314.043 328.304C314.039 338.943 305.313 347.599 294.592 347.599H294.584C291.093 347.597 287.67 346.667 284.684 344.909L283.973 344.491L276.611 346.406L278.577 339.286Z"
        fill="url(#paint3_linear_40002616_5810)"
      />
      <path
        d="M288.73 318.582C288.292 317.616 287.831 317.597 287.414 317.58C287.073 317.565 286.683 317.566 286.293 317.566C285.904 317.566 285.27 317.712 284.734 318.292C284.198 318.873 282.688 320.277 282.688 323.131C282.688 325.986 284.783 328.745 285.075 329.132C285.368 329.519 289.12 335.564 295.064 337.89C300.004 339.823 301.009 339.439 302.081 339.342C303.153 339.245 305.541 337.938 306.028 336.584C306.515 335.229 306.515 334.068 306.369 333.825C306.223 333.583 305.833 333.438 305.248 333.148C304.664 332.858 301.789 331.454 301.253 331.26C300.717 331.067 300.327 330.97 299.937 331.551C299.547 332.131 298.427 333.438 298.086 333.825C297.745 334.213 297.403 334.261 296.819 333.971C296.234 333.68 294.35 333.068 292.116 331.091C290.378 329.553 289.204 327.654 288.863 327.073C288.522 326.493 288.826 326.179 289.12 325.89C289.382 325.63 289.705 325.212 289.997 324.873C290.289 324.534 290.386 324.293 290.581 323.906C290.776 323.518 290.679 323.18 290.533 322.889C290.386 322.599 289.25 319.73 288.73 318.582Z"
        fill="white"
      />
      <g filter="url(#filter2_d_40002616_5810)">
        <circle cx="498.5" cy="328.5" r="37.5" fill="white" />
      </g>
      <path
        d="M518.151 328.498C518.151 317.862 509.349 309.23 498.505 309.23C487.661 309.23 478.859 317.862 478.859 328.498C478.859 337.824 485.617 345.589 494.576 347.381V334.279H490.647V328.498H494.576V323.681C494.576 319.963 497.66 316.938 501.452 316.938H506.363V322.718H502.434C501.354 322.718 500.47 323.585 500.47 324.645V328.498H506.363V334.279H500.47V347.67C510.391 346.706 518.151 338.498 518.151 328.498Z"
        fill="#3A5AFE"
      />
      <rect x="252" y="45" width="84.28" height="84.5321" rx="42.14" fill="#7354EF" />
      <g clip-path="url(#clip2_40002616_5810)">
        <path
          d="M284.224 70.3984H289.194L293.175 77.4972H284.251C282.291 77.4981 280.411 78.2776 279.025 79.6644C277.639 81.0512 276.86 82.9317 276.86 84.8924C276.861 86.8527 277.639 88.7328 279.025 90.1193C280.411 91.5058 282.291 92.2853 284.251 92.2864H297.078L301.057 99.2799H284.22C280.39 99.2799 276.718 97.7587 274.01 95.0509C271.302 92.3432 269.781 88.6707 269.781 84.8413C269.781 82.9445 270.154 81.0662 270.879 79.3136C271.605 77.5611 272.669 75.9687 274.01 74.6274C275.351 73.2861 276.944 72.2223 278.696 71.4967C280.449 70.7711 282.327 70.3979 284.224 70.3984Z"
          fill="white"
        />
        <path
          d="M303.924 99.5469H303.251L299.234 92.3819H303.896C305.875 92.3819 307.774 91.5956 309.173 90.1959C310.573 88.7962 311.359 86.8979 311.359 84.9184C311.359 82.939 310.573 81.0406 309.173 79.6409C307.774 78.2412 305.875 77.4549 303.896 77.4549H295.329L291.312 70.3984H303.927C305.841 70.3983 307.736 70.7752 309.505 71.5075C311.273 72.2399 312.88 73.3134 314.233 74.6668C315.587 76.0201 316.66 77.6268 317.393 79.3951C318.125 81.1634 318.502 83.0587 318.502 84.9727C318.502 86.8869 318.125 88.7824 317.392 90.5508C316.66 92.3193 315.586 93.9261 314.232 95.2795C312.878 96.6328 311.271 97.7063 309.502 98.4385C307.734 99.1707 305.838 99.5474 303.924 99.5469Z"
          fill="white"
        />
        <path
          d="M307.566 92.3164H299.227L305.771 104.128H314.15L307.566 92.3164Z"
          fill="white"
        />
        <path
          d="M284.913 87.6416C286.413 87.6416 287.63 86.425 287.63 84.9243C287.63 83.4236 286.413 82.207 284.913 82.207C283.412 82.207 282.195 83.4236 282.195 84.9243C282.195 86.425 283.412 87.6416 284.913 87.6416Z"
          fill="white"
        />
        <path
          d="M294.118 87.5374C295.59 87.5374 296.783 86.3441 296.783 84.8722C296.783 83.4003 295.59 82.207 294.118 82.207C292.646 82.207 291.453 83.4003 291.453 84.8722C291.453 86.3441 292.646 87.5374 294.118 87.5374Z"
          fill="white"
        />
        <path
          d="M303.329 87.5374C304.801 87.5374 305.994 86.3441 305.994 84.8722C305.994 83.4003 304.801 82.207 303.329 82.207C301.857 82.207 300.664 83.4003 300.664 84.8722C300.664 86.3441 301.857 87.5374 303.329 87.5374Z"
          fill="white"
        />
      </g>
    </g>
    <path
      d="M32 4H556C571.464 4 584 16.536 584 32V405C584 420.464 571.464 433 556 433H32C16.536 433 4 420.464 4 405V32L4.00879 31.2773C4.39209 16.1474 16.7776 4 32 4Z"
      stroke="white"
      stroke-width="8"
    />
    <defs>
      <filter
        id="filter0_d_40002616_5810"
        x="42.3136"
        y="291"
        width="96.3728"
        height="96.3728"
        filterUnits="userSpaceOnUse"
        color-interpolation-filters="sRGB"
      >
        <feFlood flood-opacity="0" result="BackgroundImageFix" />
        <feColorMatrix
          in="SourceAlpha"
          type="matrix"
          values="0 0 0 0 0 0 0 0 0 0 0 0 0 0 0 0 0 0 127 0"
          result="hardAlpha"
        />
        <feOffset dy="10.6864" />
        <feGaussianBlur stdDeviation="5.3432" />
        <feComposite in2="hardAlpha" operator="out" />
        <feColorMatrix
          type="matrix"
          values="0 0 0 0 0 0 0 0 0 0 0 0 0 0 0 0 0 0 0.05 0"
        />
        <feBlend mode="normal" in2="BackgroundImageFix" result="effect1_dropShadow_40002616_5810" />
        <feBlend mode="normal" in="SourceGraphic" in2="effect1_dropShadow_40002616_5810" result="shape" />
      </filter>
      <filter
        id="filter1_d_40002616_5810"
        x="246.314"
        y="291"
        width="96.3728"
        height="96.3728"
        filterUnits="userSpaceOnUse"
        color-interpolation-filters="sRGB"
      >
        <feFlood flood-opacity="0" result="BackgroundImageFix" />
        <feColorMatrix
          in="SourceAlpha"
          type="matrix"
          values="0 0 0 0 0 0 0 0 0 0 0 0 0 0 0 0 0 0 127 0"
          result="hardAlpha"
        />
        <feOffset dy="10.6864" />
        <feGaussianBlur stdDeviation="5.3432" />
        <feComposite in2="hardAlpha" operator="out" />
        <feColorMatrix
          type="matrix"
          values="0 0 0 0 0 0 0 0 0 0 0 0 0 0 0 0 0 0 0.05 0"
        />
        <feBlend mode="normal" in2="BackgroundImageFix" result="effect1_dropShadow_40002616_5810" />
        <feBlend mode="normal" in="SourceGraphic" in2="effect1_dropShadow_40002616_5810" result="shape" />
      </filter>
      <filter
        id="filter2_d_40002616_5810"
        x="450.314"
        y="291"
        width="96.3728"
        height="96.3728"
        filterUnits="userSpaceOnUse"
        color-interpolation-filters="sRGB"
      >
        <feFlood flood-opacity="0" result="BackgroundImageFix" />
        <feColorMatrix
          in="SourceAlpha"
          type="matrix"
          values="0 0 0 0 0 0 0 0 0 0 0 0 0 0 0 0 0 0 127 0"
          result="hardAlpha"
        />
        <feOffset dy="10.6864" />
        <feGaussianBlur stdDeviation="5.3432" />
        <feComposite in2="hardAlpha" operator="out" />
        <feColorMatrix
          type="matrix"
          values="0 0 0 0 0 0 0 0 0 0 0 0 0 0 0 0 0 0 0.05 0"
        />
        <feBlend mode="normal" in2="BackgroundImageFix" result="effect1_dropShadow_40002616_5810" />
        <feBlend mode="normal" in="SourceGraphic" in2="effect1_dropShadow_40002616_5810" result="shape" />
      </filter>
      <radialGradient
        id="paint0_radial_40002616_5810"
        cx="0"
        cy="0"
        r="1"
        gradientUnits="userSpaceOnUse"
        gradientTransform="translate(81.7888 349.949) rotate(-90) scale(36.8437 34.2676)"
      >
        <stop stop-color="#FFDD55" />
        <stop offset="0.1" stop-color="#FFDD55" />
        <stop offset="0.5" stop-color="#FF543E" />
        <stop offset="1" stop-color="#C837AB" />
      </radialGradient>
      <radialGradient
        id="paint1_radial_40002616_5810"
        cx="0"
        cy="0"
        r="1"
        gradientUnits="userSpaceOnUse"
        gradientTransform="translate(65.687 312.588) rotate(78.681) scale(16.4694 67.8872)"
      >
        <stop stop-color="#3771C8" />
        <stop offset="0.128" stop-color="#3771C8" />
        <stop offset="1" stop-color="#6600FF" stop-opacity="0" />
      </radialGradient>
      <linearGradient
        id="paint2_linear_40002616_5810"
        x1="2540.55"
        y1="4828.43"
        x2="2540.55"
        y2="305.887"
        gradientUnits="userSpaceOnUse"
      >
        <stop stop-color="#1FAF38" />
        <stop offset="1" stop-color="#60D669" />
      </linearGradient>
      <linearGradient
        id="paint3_linear_40002616_5810"
        x1="2621.12"
        y1="4989.8"
        x2="2621.12"
        y2="305.074"
        gradientUnits="userSpaceOnUse"
      >
        <stop stop-color="#F9F9F9" />
        <stop offset="1" stop-color="white" />
      </linearGradient>
      <clipPath id="clip0_40002616_5810">
        <path
          d="M0 32C0 14.3269 14.3269 0 32 0H556C573.673 0 588 14.3269 588 32V405C588 422.673 573.673 437 556 437H32C14.3269 437 0 422.673 0 405V32Z"
          fill="white"
        />
      </clipPath>
      <clipPath id="clip1_40002616_5810">
        <rect width="37.1756" height="37.1756" fill="white" transform="translate(71.9141 309.91)" />
      </clipPath>
      <clipPath id="clip2_40002616_5810">
        <rect width="48.7206" height="33.733" fill="white" transform="translate(269.781 70.3984)" />
      </clipPath>
    </defs>
  </svg>