<svg
    width="522"
    height="438"
    viewBox="0 0 522 438"
    fill="none"
    xmlns="http://www.w3.org/2000/svg"
    
  >
    <path
      d="M4.96094 32.0508C4.96094 16.5868 17.497 4.05078 32.9609 4.05078H489.961C505.425 4.05078 517.961 16.5868 517.961 32.0508V405.051C517.961 420.515 505.425 433.051 489.961 433.051H32.9609C17.497 433.051 4.96094 420.515 4.96094 405.051V32.0508Z"
      fill="#F3F1FD"
    />
    <path
      d="M4.96094 32.0508C4.96094 16.5868 17.497 4.05078 32.9609 4.05078H489.961C505.425 4.05078 517.961 16.5868 517.961 32.0508V405.051C517.961 420.515 505.425 433.051 489.961 433.051H32.9609C17.497 433.051 4.96094 420.515 4.96094 405.051V32.0508Z"
      stroke="white"
      stroke-width="8"
    />
    <path
      d="M262.711 247.699L262.711 231.788C262.711 215.219 249.279 201.788 232.711 201.788L142.133 201.788C125.564 201.788 112.133 188.356 112.133 171.788L112.133 142.91"
      stroke="#C1C1C8"
      stroke-width="2"
      stroke-dasharray="5 5"
    />
    <path
      d="M262.945 247.699L262.945 231.788C262.945 215.219 276.377 201.788 292.945 201.788L380.188 201.788C396.756 201.788 410.188 188.356 410.188 171.788L410.188 142.91"
      stroke="#C1C1C8"
      stroke-width="2"
      stroke-dasharray="5 5"
    />
    <path
      d="M262.984 319.148L262.984 139.633"
      stroke="#C1C1C8"
      stroke-width="2"
      stroke-dasharray="5 5"
    />
    <g filter="url(#filter0_d_1641_17521)">
      <circle cx="113.5" cy="101.5" r="37.5" fill="white" />
    </g>
    <path
      d="M97.3744 101.5C97.3744 95.5 101.679 90.625 106.974 90.625L112.524 90.625C113.139 90.625 113.649 91.135 113.649 91.75C113.649 92.365 113.139 92.875 112.524 92.875C108.594 92.875 105.624 96.58 105.624 101.5C105.624 106.42 108.594 110.125 112.524 110.125C113.139 110.125 113.649 110.635 113.649 111.25C113.649 111.865 113.139 112.375 112.524 112.375L106.974 112.375C101.679 112.375 97.3744 107.5 97.3744 101.5ZM106.809 92.875C102.834 92.98 99.6244 96.805 99.6244 101.5C99.6244 106.195 102.834 110.02 106.809 110.125C104.694 108.175 103.374 105.085 103.374 101.5C103.374 97.915 104.694 94.84 106.809 92.875Z"
      fill="#585484"
    />
    <path
      d="M110.875 101.5C110.875 97.36 112.735 93.64 115.735 91.825C117.01 91.045 118.495 90.625 120.025 90.625C122.605 90.625 125.035 91.78 126.865 93.865C128.65 95.905 129.625 98.62 129.625 101.5C129.625 104.38 128.65 107.08 126.88 109.135C125.035 111.22 122.605 112.375 120.025 112.375C118.495 112.375 117.025 111.955 115.735 111.175C112.735 109.36 110.875 105.64 110.875 101.5ZM127.375 101.5C127.375 99.16 126.595 96.97 125.155 95.335C123.775 93.745 121.945 92.875 120.025 92.875C118.9 92.875 117.85 93.175 116.905 93.745C114.565 95.17 113.125 98.14 113.125 101.5C113.125 104.86 114.58 107.83 116.905 109.255C117.85 109.84 118.9 110.125 120.025 110.125C121.945 110.125 123.775 109.255 125.185 107.65C126.595 106.015 127.375 103.84 127.375 101.5Z"
      fill="#585484"
    />
    <path
      d="M103.375 101.5C103.375 95.305 107.305 90.625 112.525 90.625L120.025 90.625C125.32 90.625 129.625 95.5 129.625 101.5C129.625 104.38 128.65 107.08 126.88 109.135C125.035 111.22 122.605 112.375 120.025 112.375L112.525 112.375C107.305 112.375 103.375 107.695 103.375 101.5ZM127.375 101.5C127.375 96.745 124.075 92.875 120.025 92.875L112.525 92.875C108.595 92.875 105.625 96.58 105.625 101.5C105.625 106.42 108.595 110.125 112.525 110.125L120.025 110.125C121.945 110.125 123.775 109.255 125.185 107.65C126.595 106.015 127.375 103.84 127.375 101.5Z"
      fill="#585484"
    />
    <g filter="url(#filter1_d_1641_17521)">
      <circle cx="261.5" cy="101.5" r="37.5" fill="white" />
    </g>
    <path
      d="M245.374 101.5C245.374 95.5 249.679 90.625 254.974 90.625L260.524 90.625C261.139 90.625 261.649 91.135 261.649 91.75C261.649 92.365 261.139 92.875 260.524 92.875C256.594 92.875 253.624 96.58 253.624 101.5C253.624 106.42 256.594 110.125 260.524 110.125C261.139 110.125 261.649 110.635 261.649 111.25C261.649 111.865 261.139 112.375 260.524 112.375L254.974 112.375C249.679 112.375 245.374 107.5 245.374 101.5ZM254.809 92.875C250.834 92.98 247.624 96.805 247.624 101.5C247.624 106.195 250.834 110.02 254.809 110.125C252.694 108.175 251.374 105.085 251.374 101.5C251.374 97.915 252.694 94.84 254.809 92.875Z"
      fill="#585484"
    />
    <path
      d="M258.875 101.5C258.875 97.36 260.735 93.64 263.735 91.825C265.01 91.045 266.495 90.625 268.025 90.625C270.605 90.625 273.035 91.78 274.865 93.865C276.65 95.905 277.625 98.62 277.625 101.5C277.625 104.38 276.65 107.08 274.88 109.135C273.035 111.22 270.605 112.375 268.025 112.375C266.495 112.375 265.025 111.955 263.735 111.175C260.735 109.36 258.875 105.64 258.875 101.5ZM275.375 101.5C275.375 99.16 274.595 96.97 273.155 95.335C271.775 93.745 269.945 92.875 268.025 92.875C266.9 92.875 265.85 93.175 264.905 93.745C262.565 95.17 261.125 98.14 261.125 101.5C261.125 104.86 262.58 107.83 264.905 109.255C265.85 109.84 266.9 110.125 268.025 110.125C269.945 110.125 271.775 109.255 273.185 107.65C274.595 106.015 275.375 103.84 275.375 101.5Z"
      fill="#585484"
    />
    <path
      d="M251.375 101.5C251.375 95.305 255.305 90.625 260.525 90.625L268.025 90.625C273.32 90.625 277.625 95.5 277.625 101.5C277.625 104.38 276.65 107.08 274.88 109.135C273.035 111.22 270.605 112.375 268.025 112.375L260.525 112.375C255.305 112.375 251.375 107.695 251.375 101.5ZM275.375 101.5C275.375 96.745 272.075 92.875 268.025 92.875L260.525 92.875C256.595 92.875 253.625 96.58 253.625 101.5C253.625 106.42 256.595 110.125 260.525 110.125L268.025 110.125C269.945 110.125 271.775 109.255 273.185 107.65C274.595 106.015 275.375 103.84 275.375 101.5Z"
      fill="#585484"
    />
    <g filter="url(#filter2_d_1641_17521)">
      <circle cx="409.5" cy="101.5" r="37.5" fill="white" />
    </g>
    <path
      d="M393.374 101.5C393.374 95.5 397.679 90.625 402.974 90.625L408.524 90.625C409.139 90.625 409.649 91.135 409.649 91.75C409.649 92.365 409.139 92.875 408.524 92.875C404.594 92.875 401.624 96.58 401.624 101.5C401.624 106.42 404.594 110.125 408.524 110.125C409.139 110.125 409.649 110.635 409.649 111.25C409.649 111.865 409.139 112.375 408.524 112.375L402.974 112.375C397.679 112.375 393.374 107.5 393.374 101.5ZM402.809 92.875C398.834 92.98 395.624 96.805 395.624 101.5C395.624 106.195 398.834 110.02 402.809 110.125C400.694 108.175 399.374 105.085 399.374 101.5C399.374 97.915 400.694 94.84 402.809 92.875Z"
      fill="#585484"
    />
    <path
      d="M406.875 101.5C406.875 97.36 408.735 93.64 411.735 91.825C413.01 91.045 414.495 90.625 416.025 90.625C418.605 90.625 421.035 91.78 422.865 93.865C424.65 95.905 425.625 98.62 425.625 101.5C425.625 104.38 424.65 107.08 422.88 109.135C421.035 111.22 418.605 112.375 416.025 112.375C414.495 112.375 413.025 111.955 411.735 111.175C408.735 109.36 406.875 105.64 406.875 101.5ZM423.375 101.5C423.375 99.16 422.595 96.97 421.155 95.335C419.775 93.745 417.945 92.875 416.025 92.875C414.9 92.875 413.85 93.175 412.905 93.745C410.565 95.17 409.125 98.14 409.125 101.5C409.125 104.86 410.58 107.83 412.905 109.255C413.85 109.84 414.9 110.125 416.025 110.125C417.945 110.125 419.775 109.255 421.185 107.65C422.595 106.015 423.375 103.84 423.375 101.5Z"
      fill="#585484"
    />
    <path
      d="M399.375 101.5C399.375 95.305 403.305 90.625 408.525 90.625L416.025 90.625C421.32 90.625 425.625 95.5 425.625 101.5C425.625 104.38 424.65 107.08 422.88 109.135C421.035 111.22 418.605 112.375 416.025 112.375L408.525 112.375C403.305 112.375 399.375 107.695 399.375 101.5ZM423.375 101.5C423.375 96.745 420.075 92.875 416.025 92.875L408.525 92.875C404.595 92.875 401.625 96.58 401.625 101.5C401.625 106.42 404.595 110.125 408.525 110.125L416.025 110.125C417.945 110.125 419.775 109.255 421.185 107.65C422.595 106.015 423.375 103.84 423.375 101.5Z"
      fill="#585484"
    />
    <rect
      x="214.82"
      y="276.621"
      width="96.32"
      height="96.6081"
      rx="48.16"
      fill="#7354EF"
    />
    <g clip-path="url(#clip0_1641_17521)">
      <path
        d="M251.646 305.648H257.326L261.876 313.761H251.677C249.437 313.762 247.288 314.653 245.704 316.238C244.12 317.823 243.23 319.972 243.231 322.213C243.231 324.453 244.121 326.602 245.705 328.187C247.289 329.771 249.437 330.662 251.677 330.663H266.336L270.884 338.656H251.641C247.265 338.656 243.068 336.917 239.973 333.823C236.879 330.728 235.14 326.531 235.14 322.155C235.139 319.987 235.566 317.84 236.395 315.837C237.225 313.834 238.44 312.014 239.973 310.482C241.506 308.949 243.326 307.733 245.329 306.904C247.332 306.074 249.478 305.648 251.646 305.648Z"
        fill="white"
      />
      <path
        d="M274.163 338.961H273.393L268.803 330.772H274.13C276.393 330.772 278.562 329.874 280.162 328.274C281.761 326.675 282.66 324.505 282.66 322.243C282.66 319.98 281.761 317.811 280.162 316.211C278.562 314.612 276.393 313.713 274.13 313.713H264.34L259.75 305.648H274.166C276.354 305.648 278.52 306.079 280.541 306.916C282.562 307.753 284.398 308.98 285.945 310.527C287.492 312.073 288.719 313.909 289.556 315.93C290.393 317.951 290.824 320.117 290.824 322.305C290.824 324.492 290.392 326.659 289.555 328.68C288.718 330.701 287.49 332.537 285.943 334.084C284.396 335.631 282.559 336.857 280.538 337.694C278.517 338.531 276.35 338.962 274.163 338.961Z"
        fill="white"
      />
      <path
        d="M278.312 330.699H268.781L276.26 344.198H285.836L278.312 330.699Z"
        fill="white"
      />
      <path
        d="M252.433 325.359C254.148 325.359 255.539 323.969 255.539 322.254C255.539 320.539 254.148 319.148 252.433 319.148C250.718 319.148 249.328 320.539 249.328 322.254C249.328 323.969 250.718 325.359 252.433 325.359Z"
        fill="white"
      />
      <path
        d="M262.952 325.24C264.634 325.24 265.998 323.877 265.998 322.194C265.998 320.512 264.634 319.148 262.952 319.148C261.269 319.148 259.906 320.512 259.906 322.194C259.906 323.877 261.269 325.24 262.952 325.24Z"
        fill="white"
      />
      <path
        d="M273.483 325.24C275.165 325.24 276.529 323.877 276.529 322.194C276.529 320.512 275.165 319.148 273.483 319.148C271.801 319.148 270.437 320.512 270.437 322.194C270.437 323.877 271.801 325.24 273.483 325.24Z"
        fill="white"
      />
    </g>
    <g filter="url(#filter3_d_1641_17521)">
      <circle
        cx="264"
        cy="200"
        r="30"
        transform="rotate(-90 264 200)"
        fill="white"
      />
    </g>
    <path
      d="M275.977 198.763V193.166C275.977 192.12 275.187 190.934 274.205 190.539L267.103 187.632C265.51 186.982 263.712 186.982 262.118 187.632L255.016 190.539C254.047 190.934 253.257 192.12 253.257 193.166V198.763C253.257 204.998 257.783 210.837 263.967 212.546C264.388 212.66 264.847 212.66 265.267 212.546C271.451 210.837 275.977 204.998 275.977 198.763ZM265.573 200.994V204.347C265.573 204.87 265.14 205.304 264.617 205.304C264.094 205.304 263.661 204.87 263.661 204.347V200.994C262.373 200.586 261.43 199.388 261.43 197.972C261.43 196.213 262.858 194.785 264.617 194.785C266.377 194.785 267.805 196.213 267.805 197.972C267.805 199.4 266.861 200.586 265.573 200.994Z"
      fill="#7354EF"
    />
    <defs>
      <filter
        id="filter0_d_1641_17521"
        x="65.3136"
        y="64"
        width="96.3728"
        height="96.3728"
        filterUnits="userSpaceOnUse"
        color-interpolation-filters="sRGB"
      >
        <feFlood flood-opacity="0" result="BackgroundImageFix" />
        <feColorMatrix
          in="SourceAlpha"
          type="matrix"
          values="0 0 0 0 0 0 0 0 0 0 0 0 0 0 0 0 0 0 127 0"
          result="hardAlpha"
        />
        <feOffset dy="10.6864" />
        <feGaussianBlur stdDeviation="5.3432" />
        <feComposite in2="hardAlpha" operator="out" />
        <feColorMatrix
          type="matrix"
          values="0 0 0 0 0 0 0 0 0 0 0 0 0 0 0 0 0 0 0.05 0"
        />
        <feBlend
          mode="normal"
          in2="BackgroundImageFix"
          result="effect1_dropShadow_1641_17521"
        />
        <feBlend
          mode="normal"
          in="SourceGraphic"
          in2="effect1_dropShadow_1641_17521"
          result="shape"
        />
      </filter>
      <filter
        id="filter1_d_1641_17521"
        x="213.314"
        y="64"
        width="96.3728"
        height="96.3728"
        filterUnits="userSpaceOnUse"
        color-interpolation-filters="sRGB"
      >
        <feFlood flood-opacity="0" result="BackgroundImageFix" />
        <feColorMatrix
          in="SourceAlpha"
          type="matrix"
          values="0 0 0 0 0 0 0 0 0 0 0 0 0 0 0 0 0 0 127 0"
          result="hardAlpha"
        />
        <feOffset dy="10.6864" />
        <feGaussianBlur stdDeviation="5.3432" />
        <feComposite in2="hardAlpha" operator="out" />
        <feColorMatrix
          type="matrix"
          values="0 0 0 0 0 0 0 0 0 0 0 0 0 0 0 0 0 0 0.05 0"
        />
        <feBlend
          mode="normal"
          in2="BackgroundImageFix"
          result="effect1_dropShadow_1641_17521"
        />
        <feBlend
          mode="normal"
          in="SourceGraphic"
          in2="effect1_dropShadow_1641_17521"
          result="shape"
        />
      </filter>
      <filter
        id="filter2_d_1641_17521"
        x="361.314"
        y="64"
        width="96.3728"
        height="96.3728"
        filterUnits="userSpaceOnUse"
        color-interpolation-filters="sRGB"
      >
        <feFlood flood-opacity="0" result="BackgroundImageFix" />
        <feColorMatrix
          in="SourceAlpha"
          type="matrix"
          values="0 0 0 0 0 0 0 0 0 0 0 0 0 0 0 0 0 0 127 0"
          result="hardAlpha"
        />
        <feOffset dy="10.6864" />
        <feGaussianBlur stdDeviation="5.3432" />
        <feComposite in2="hardAlpha" operator="out" />
        <feColorMatrix
          type="matrix"
          values="0 0 0 0 0 0 0 0 0 0 0 0 0 0 0 0 0 0 0.05 0"
        />
        <feBlend
          mode="normal"
          in2="BackgroundImageFix"
          result="effect1_dropShadow_1641_17521"
        />
        <feBlend
          mode="normal"
          in="SourceGraphic"
          in2="effect1_dropShadow_1641_17521"
          result="shape"
        />
      </filter>
      <filter
        id="filter3_d_1641_17521"
        x="225.451"
        y="170"
        width="77.0983"
        height="77.0983"
        filterUnits="userSpaceOnUse"
        color-interpolation-filters="sRGB"
      >
        <feFlood flood-opacity="0" result="BackgroundImageFix" />
        <feColorMatrix
          in="SourceAlpha"
          type="matrix"
          values="0 0 0 0 0 0 0 0 0 0 0 0 0 0 0 0 0 0 127 0"
          result="hardAlpha"
        />
        <feOffset dy="8.54913" />
        <feGaussianBlur stdDeviation="4.27456" />
        <feComposite in2="hardAlpha" operator="out" />
        <feColorMatrix
          type="matrix"
          values="0 0 0 0 0 0 0 0 0 0 0 0 0 0 0 0 0 0 0.05 0"
        />
        <feBlend
          mode="normal"
          in2="BackgroundImageFix"
          result="effect1_dropShadow_1641_17521"
        />
        <feBlend
          mode="normal"
          in="SourceGraphic"
          in2="effect1_dropShadow_1641_17521"
          result="shape"
        />
      </filter>
      <clipPath id="clip0_1641_17521">
        <rect
          width="55.6807"
          height="38.552"
          fill="white"
          transform="translate(235.14 305.648)"
        />
      </clipPath>
    </defs>
  </svg>