<svg
    width="522"
    height="438"
    viewBox="0 0 522 438"
    fill="none"
    xmlns="http://www.w3.org/2000/svg"
    
  >
    <path
      d="M4.96094 32.0508C4.96094 16.5868 17.497 4.05078 32.9609 4.05078H489.961C505.425 4.05078 517.961 16.5868 517.961 32.0508V405.051C517.961 420.515 505.425 433.051 489.961 433.051H32.9609C17.497 433.051 4.96094 420.515 4.96094 405.051V32.0508Z"
      fill="#F3F1FD"
    />
    <path
      d="M4.96094 32.0508C4.96094 16.5868 17.497 4.05078 32.9609 4.05078H489.961C505.425 4.05078 517.961 16.5868 517.961 32.0508V405.051C517.961 420.515 505.425 433.051 489.961 433.051H32.9609C17.497 433.051 4.96094 420.515 4.96094 405.051V32.0508Z"
      stroke="white"
      stroke-width="8"
    />
    <path
      d="M262.211 254.152L262.211 238.241C262.211 221.672 248.779 208.241 232.211 208.241L141.633 208.241C125.064 208.241 111.633 194.809 111.633 178.241L111.633 149.363"
      stroke="#C1C1C8"
      stroke-width="2"
      stroke-dasharray="5 5"
    />
    <path
      d="M262.445 254.152L262.445 238.241C262.445 221.672 275.877 208.241 292.445 208.241L379.688 208.241C396.256 208.241 409.688 194.809 409.688 178.241L409.688 149.363"
      stroke="#C1C1C8"
      stroke-width="2"
      stroke-dasharray="5 5"
    />
    <path
      d="M262.484 223.75L262.484 146.086"
      stroke="#C1C1C8"
      stroke-width="2"
      stroke-dasharray="5 5"
    />
    <g filter="url(#filter0_d_1641_17481)">
      <circle cx="113.5" cy="117.5" r="37.5" fill="white" />
    </g>
    <path
      d="M121.472 119.096C121.468 119.085 121.464 119.074 121.46 119.064C121.315 118.712 120.976 118.484 120.595 118.484C120.595 118.484 120.595 118.484 120.594 118.484C120.213 118.485 119.874 118.713 119.73 119.065C119.726 119.075 119.723 119.084 119.719 119.094L116.529 127.917C116.353 128.403 116.717 128.912 117.227 128.912C117.531 128.912 117.816 128.724 117.925 128.422L118.664 126.378H122.504L123.235 128.419C123.374 128.805 123.799 129.006 124.184 128.868C124.57 128.73 124.771 128.305 124.633 127.919L121.472 119.096ZM119.201 124.894L120.593 121.043L121.972 124.894H119.201Z"
      fill="#585484"
      stroke="#585484"
    />
    <path
      d="M110.587 113.502C111.221 112.638 111.596 111.573 111.596 110.421C111.596 107.546 109.265 105.207 106.399 105.207C103.534 105.207 101.203 107.546 101.203 110.421C101.203 113.295 103.534 115.634 106.399 115.634C107.583 115.634 108.675 115.234 109.549 114.563L110.362 115.38C110.652 115.67 111.121 115.671 111.412 115.382C111.702 115.092 111.703 114.622 111.414 114.332L110.587 113.502ZM106.399 114.15C104.353 114.15 102.688 112.477 102.688 110.421C102.688 108.364 104.353 106.691 106.399 106.691C108.446 106.691 110.111 108.364 110.111 110.421C110.111 111.161 109.894 111.852 109.522 112.433L108.564 111.471C108.275 111.181 107.805 111.18 107.514 111.469C107.224 111.758 107.223 112.228 107.512 112.519L108.49 113.5C107.894 113.91 107.174 114.15 106.399 114.15Z"
      fill="#585484"
      stroke="#585484"
    />
    <path
      d="M132.5 122.818C132.5 115.393 125.723 109.691 118.32 111.113C118.715 104.251 113.243 98.5 106.42 98.5C99.8475 98.5 94.5 103.848 94.5 110.42C94.5 113.907 96 117.172 98.6295 119.442L98.2301 123.284C98.2028 123.546 98.3168 123.803 98.5296 123.959C98.743 124.115 99.0229 124.146 99.264 124.041L103.83 122.058C105.42 122.41 107.073 122.435 108.681 122.125C108.283 129.013 113.781 134.738 120.58 134.738C121.452 134.738 122.322 134.643 123.17 134.455L127.736 136.439C127.977 136.543 128.257 136.513 128.47 136.357C128.683 136.201 128.797 135.944 128.77 135.681L128.37 131.839C131 129.569 132.5 126.304 132.5 122.818ZM103.935 120.558C103.778 120.52 103.612 120.534 103.464 120.598L99.8379 122.173L100.147 119.202C100.173 118.952 100.07 118.706 99.8745 118.548C97.4023 116.554 95.9844 113.592 95.9844 110.42C95.9844 104.666 100.666 99.9844 106.42 99.9844C112.175 99.9844 116.856 104.666 116.856 110.42C116.856 116.175 112.175 120.856 106.42 120.856C105.582 120.857 104.746 120.756 103.935 120.558ZM127.125 130.945C126.93 131.103 126.827 131.349 126.853 131.599L127.162 134.571L123.536 132.996C123.388 132.931 123.222 132.917 123.064 132.955C122.255 133.153 121.418 133.254 120.58 133.254C114.431 133.254 109.556 127.924 110.201 121.726C114.234 120.374 117.311 116.921 118.126 112.673C118.925 112.48 119.748 112.382 120.58 112.382C126.334 112.382 131.016 117.063 131.016 122.818C131.016 125.989 129.598 128.951 127.125 130.945Z"
      fill="#585484"
      stroke="#585484"
    />
    <g filter="url(#filter1_d_1641_17481)">
      <circle cx="261" cy="117.5" r="37.5" fill="white" />
    </g>
    <path
      d="M261 134.52C251.611 134.52 243.979 126.889 243.979 117.499C243.979 108.11 251.611 100.479 261 100.479C270.389 100.479 278.021 108.11 278.021 117.499C278.021 126.889 270.389 134.52 261 134.52ZM261 102.854C252.925 102.854 246.354 109.424 246.354 117.499C246.354 125.574 252.925 132.145 261 132.145C269.075 132.145 275.646 125.574 275.646 117.499C275.646 109.424 269.075 102.854 261 102.854Z"
      fill="#585484"
    />
    <path
      d="M256.253 132.938H254.67C254.021 132.938 253.482 132.399 253.482 131.75C253.482 131.101 253.989 130.578 254.638 130.562C252.152 122.076 252.152 112.924 254.638 104.438C253.989 104.422 253.482 103.899 253.482 103.25C253.482 102.601 254.021 102.062 254.67 102.062H256.253C256.633 102.062 256.997 102.252 257.219 102.553C257.441 102.87 257.504 103.266 257.377 103.63C254.401 112.576 254.401 122.424 257.377 131.386C257.504 131.75 257.441 132.146 257.219 132.463C256.997 132.748 256.633 132.938 256.253 132.938Z"
      fill="#585484"
    />
    <path
      d="M265.754 132.937C265.627 132.937 265.5 132.921 265.374 132.874C264.756 132.668 264.408 131.987 264.63 131.37C267.606 122.424 267.606 112.576 264.63 103.614C264.424 102.996 264.756 102.316 265.374 102.11C266.007 101.904 266.672 102.236 266.878 102.854C270.029 112.291 270.029 122.677 266.878 132.098C266.72 132.621 266.245 132.937 265.754 132.937Z"
      fill="#585484"
    />
    <path
      d="M261 125.733C256.583 125.733 252.181 125.115 247.938 123.864C247.922 124.498 247.399 125.02 246.75 125.02C246.101 125.02 245.562 124.482 245.562 123.833V122.249C245.562 121.869 245.752 121.505 246.053 121.283C246.37 121.062 246.766 120.998 247.13 121.125C256.076 124.102 265.94 124.102 274.886 121.125C275.25 120.998 275.646 121.062 275.963 121.283C276.279 121.505 276.453 121.869 276.453 122.249V123.833C276.453 124.482 275.915 125.02 275.266 125.02C274.617 125.02 274.094 124.513 274.078 123.864C269.819 125.115 265.417 125.733 261 125.733Z"
      fill="#585484"
    />
    <path
      d="M275.256 113.938C275.129 113.938 275.003 113.923 274.876 113.875C265.93 110.898 256.066 110.898 247.12 113.875C246.487 114.081 245.822 113.748 245.616 113.131C245.426 112.498 245.758 111.833 246.376 111.627C255.813 108.476 266.199 108.476 275.62 111.627C276.238 111.833 276.586 112.513 276.364 113.131C276.222 113.622 275.747 113.938 275.256 113.938Z"
      fill="#585484"
    />
    <g filter="url(#filter2_d_1641_17481)">
      <circle cx="408.5" cy="117.5" r="37.5" fill="white" />
    </g>
    <path
      d="M408.5 134.52C399.111 134.52 391.479 126.889 391.479 117.499C391.479 108.11 399.111 100.479 408.5 100.479C417.889 100.479 425.521 108.11 425.521 117.499C425.521 126.889 417.889 134.52 408.5 134.52ZM408.5 102.854C400.425 102.854 393.854 109.424 393.854 117.499C393.854 125.574 400.425 132.145 408.5 132.145C416.575 132.145 423.146 125.574 423.146 117.499C423.146 109.424 416.575 102.854 408.5 102.854Z"
      fill="#585484"
    />
    <path
      d="M408.5 122.646C407.851 122.646 407.312 122.108 407.312 121.459V111.959C407.312 111.31 407.851 110.771 408.5 110.771C409.149 110.771 409.688 111.31 409.688 111.959V121.459C409.688 122.108 409.149 122.646 408.5 122.646Z"
      fill="#585484"
    />
    <path
      d="M408.496 124.225C408.195 124.225 407.894 124.114 407.657 123.876L402.907 119.126C402.448 118.667 402.448 117.907 402.907 117.448C403.366 116.989 404.126 116.989 404.585 117.448L408.496 121.359L412.407 117.448C412.866 116.989 413.626 116.989 414.085 117.448C414.544 117.907 414.544 118.667 414.085 119.126L409.335 123.876C409.098 124.114 408.797 124.225 408.496 124.225Z"
      fill="#585484"
    />
    <rect
      x="214.32"
      y="261.074"
      width="96.32"
      height="96.6081"
      rx="48.16"
      fill="#7354EF"
    />
    <g clip-path="url(#clip0_1641_17481)">
      <path
        d="M251.146 290.102H256.826L261.376 298.214H251.177C248.937 298.215 246.788 299.106 245.204 300.691C243.62 302.276 242.73 304.425 242.731 306.666C242.731 308.906 243.621 311.055 245.205 312.64C246.789 314.224 248.937 315.115 251.177 315.116H265.836L270.384 323.109H251.141C246.765 323.109 242.568 321.37 239.473 318.276C236.379 315.181 234.64 310.984 234.64 306.608C234.639 304.44 235.066 302.293 235.895 300.29C236.725 298.287 237.94 296.468 239.473 294.935C241.006 293.402 242.826 292.186 244.829 291.357C246.832 290.527 248.978 290.101 251.146 290.102Z"
        fill="white"
      />
      <path
        d="M273.663 323.414H272.893L268.303 315.226H273.63C275.893 315.226 278.062 314.327 279.662 312.727C281.261 311.128 282.16 308.958 282.16 306.696C282.16 304.434 281.261 302.264 279.662 300.664C278.062 299.065 275.893 298.166 273.63 298.166H263.84L259.25 290.102H273.666C275.854 290.101 278.02 290.532 280.041 291.369C282.062 292.206 283.898 293.433 285.445 294.98C286.992 296.526 288.219 298.363 289.056 300.383C289.893 302.404 290.324 304.57 290.324 306.758C290.324 308.946 289.892 311.112 289.055 313.133C288.218 315.154 286.99 316.99 285.443 318.537C283.896 320.084 282.059 321.311 280.038 322.147C278.017 322.984 275.85 323.415 273.663 323.414Z"
        fill="white"
      />
      <path
        d="M277.812 315.152H268.281L275.76 328.651H285.336L277.812 315.152Z"
        fill="white"
      />
      <path
        d="M251.933 309.812C253.648 309.812 255.039 308.422 255.039 306.707C255.039 304.992 253.648 303.602 251.933 303.602C250.218 303.602 248.828 304.992 248.828 306.707C248.828 308.422 250.218 309.812 251.933 309.812Z"
        fill="white"
      />
      <path
        d="M262.452 309.693C264.134 309.693 265.498 308.33 265.498 306.647C265.498 304.965 264.134 303.602 262.452 303.602C260.769 303.602 259.406 304.965 259.406 306.647C259.406 308.33 260.769 309.693 262.452 309.693Z"
        fill="white"
      />
      <path
        d="M272.983 309.693C274.665 309.693 276.029 308.33 276.029 306.647C276.029 304.965 274.665 303.602 272.983 303.602C271.301 303.602 269.937 304.965 269.937 306.647C269.937 308.33 271.301 309.693 272.983 309.693Z"
        fill="white"
      />
    </g>
    <defs>
      <filter
        id="filter0_d_1641_17481"
        x="65.3136"
        y="80"
        width="96.3728"
        height="96.3728"
        filterUnits="userSpaceOnUse"
        color-interpolation-filters="sRGB"
      >
        <feFlood flood-opacity="0" result="BackgroundImageFix" />
        <feColorMatrix
          in="SourceAlpha"
          type="matrix"
          values="0 0 0 0 0 0 0 0 0 0 0 0 0 0 0 0 0 0 127 0"
          result="hardAlpha"
        />
        <feOffset dy="10.6864" />
        <feGaussianBlur stdDeviation="5.3432" />
        <feComposite in2="hardAlpha" operator="out" />
        <feColorMatrix
          type="matrix"
          values="0 0 0 0 0 0 0 0 0 0 0 0 0 0 0 0 0 0 0.05 0"
        />
        <feBlend
          mode="normal"
          in2="BackgroundImageFix"
          result="effect1_dropShadow_1641_17481"
        />
        <feBlend
          mode="normal"
          in="SourceGraphic"
          in2="effect1_dropShadow_1641_17481"
          result="shape"
        />
      </filter>
      <filter
        id="filter1_d_1641_17481"
        x="212.814"
        y="80"
        width="96.3728"
        height="96.3728"
        filterUnits="userSpaceOnUse"
        color-interpolation-filters="sRGB"
      >
        <feFlood flood-opacity="0" result="BackgroundImageFix" />
        <feColorMatrix
          in="SourceAlpha"
          type="matrix"
          values="0 0 0 0 0 0 0 0 0 0 0 0 0 0 0 0 0 0 127 0"
          result="hardAlpha"
        />
        <feOffset dy="10.6864" />
        <feGaussianBlur stdDeviation="5.3432" />
        <feComposite in2="hardAlpha" operator="out" />
        <feColorMatrix
          type="matrix"
          values="0 0 0 0 0 0 0 0 0 0 0 0 0 0 0 0 0 0 0.05 0"
        />
        <feBlend
          mode="normal"
          in2="BackgroundImageFix"
          result="effect1_dropShadow_1641_17481"
        />
        <feBlend
          mode="normal"
          in="SourceGraphic"
          in2="effect1_dropShadow_1641_17481"
          result="shape"
        />
      </filter>
      <filter
        id="filter2_d_1641_17481"
        x="360.314"
        y="80"
        width="96.3728"
        height="96.3728"
        filterUnits="userSpaceOnUse"
        color-interpolation-filters="sRGB"
      >
        <feFlood flood-opacity="0" result="BackgroundImageFix" />
        <feColorMatrix
          in="SourceAlpha"
          type="matrix"
          values="0 0 0 0 0 0 0 0 0 0 0 0 0 0 0 0 0 0 127 0"
          result="hardAlpha"
        />
        <feOffset dy="10.6864" />
        <feGaussianBlur stdDeviation="5.3432" />
        <feComposite in2="hardAlpha" operator="out" />
        <feColorMatrix
          type="matrix"
          values="0 0 0 0 0 0 0 0 0 0 0 0 0 0 0 0 0 0 0.05 0"
        />
        <feBlend
          mode="normal"
          in2="BackgroundImageFix"
          result="effect1_dropShadow_1641_17481"
        />
        <feBlend
          mode="normal"
          in="SourceGraphic"
          in2="effect1_dropShadow_1641_17481"
          result="shape"
        />
      </filter>
      <clipPath id="clip0_1641_17481">
        <rect
          width="55.6807"
          height="38.552"
          fill="white"
          transform="translate(234.64 290.102)"
        />
      </clipPath>
    </defs>
  </svg>